<svg class="border shadow-md" viewBox="0 0 1081.52 540.76" style="width: 1081.52px; height: 540.76px;" xmlns="http://www.w3.org/2000/svg" preserveAspectRatio="none"><rect class="bg" id="bg" x="0" y="0" width="1081.52" height="540.76" fill="#95a3c4"/><circle cx="685.7975" cy="170.7975" r="67.595" stroke="#656C93" fill="none" stroke-width="10" opacity="0.5"/><circle cx="756.7975" cy="134.7975" r="67.595" stroke="#656C93" fill="none" stroke-width="10" opacity="0.5"/><circle cx="235" cy="412" r="128" stroke="#656C93" fill="none" stroke-width="10" opacity="0.5"/><circle cx="977.5" cy="467.5" r="99" stroke="#EFEBE0" fill="none" stroke-width="10" opacity="0.5"/><circle cx="930.7975" cy="272.7975" r="67.595" stroke="#656C93" fill="none" stroke-width="10" opacity="0.5"/><circle cx="692.7975" cy="306.7975" r="67.595" stroke="#656C93" fill="none" stroke-width="10" opacity="0.5"/><circle cx="541.7975" cy="391.7975" r="67.595" stroke="#656C93" fill="none" stroke-width="10" opacity="0.5"/><circle cx="1028.7975" cy="239.7975" r="67.595" stroke="#EFEBE0" fill="none" stroke-width="10" opacity="0.5"/><circle cx="1001.7975" cy="51.7975" r="67.595" stroke="#656C93" fill="none" stroke-width="10" opacity="0.5"/><circle cx="317.7975" cy="143.7975" r="67.595" stroke="#656C93" fill="none" stroke-width="10" opacity="0.5"/><circle cx="728.7975" cy="264.7975" r="67.595" stroke="#656C93" fill="none" stroke-width="10" opacity="0.5"/><circle cx="297" cy="367" r="86" stroke="#EFEBE0" fill="none" stroke-width="10" opacity="0.5"/><circle cx="323" cy="467" r="72" stroke="#656C93" fill="none" stroke-width="10" opacity="0.5"/><circle cx="978.7975" cy="196.7975" r="67.595" stroke="#656C93" fill="none" stroke-width="10" opacity="0.5"/><circle cx="448.7975" cy="516.7975" r="67.595" stroke="#656C93" fill="none" stroke-width="10" opacity="0.5"/><circle cx="631" cy="151" r="106" stroke="#EFEBE0" fill="none" stroke-width="10" opacity="0.5"/><circle cx="385.7975" cy="211.7975" r="67.595" stroke="#656C93" fill="none" stroke-width="10" opacity="0.5"/><circle cx="408.7975" cy="253.7975" r="67.595" stroke="#656C93" fill="none" stroke-width="10" opacity="0.5"/><circle cx="617.5" cy="305.5" r="101" stroke="#656C93" fill="none" stroke-width="10" opacity="0.5"/><circle cx="545" cy="207" r="74" stroke="#EFEBE0" fill="none" stroke-width="10" opacity="0.5"/><circle cx="949.7975" cy="279.7975" r="67.595" stroke="#656C93" fill="none" stroke-width="10" opacity="0.5"/></svg>