<svg xmlns:xlink="http://www.w3.org/1999/xlink" xmlns="http://www.w3.org/2000/svg" viewBox="0 0 369.9130434782609 63.860891745681194" preserveAspectRatio="xMidYMid meet" class="css-g5ufxp" id="behcadhd" width="200.9130434782609"  height="40.860891745681194" ><defs id="SvgjsDefs8068"></defs><g id="SvgjsG8069" featurekey="symbolFeature-0" transform="matrix(0.8454081197046239,0,0,0.8454081197046239,-4.227176853760918,-10.340584145254837)" fill="#e2e8f0"><path xmlns="http://www.w3.org/2000/svg" fill-rule="evenodd" clip-rule="evenodd" d="M37.854,26.105c4.419,0.427,9.428,0.088,13.873,1.506  c9.941,3.172,12.788,12.875,6.951,21.616c-5.842,8.748-19.074,12.679-28.707,8.529c-5.733-2.47-8.564-7.035-8.386-13.493  c0.031-1.115,0.004-2.23,0.004-3.859c-1.384,1.08-2.314,2.11-3.474,2.62c-1.036,0.456-2.631,0.83-3.42,0.339  c-0.834-0.521-1.51-2.167-1.378-3.21c0.498-3.95,2.573-7.114,5.903-9.304c2.276-1.498,4.431-0.314,4.684,2.432  c0.073,0.803,0.011,1.618,0.011,2.586c3.181-2.606,6.212-5.089,9.882-8.096c-1.812,0.348-2.923,0.822-3.96,0.692  c-1.139-0.141-2.447-0.605-3.204-1.391c-0.354-0.366,0.118-2.113,0.728-2.727c3.469-3.495,7.695-5.516,12.689-5.434  c2.33,0.038,3.104,1.875,1.559,3.693C40.347,24.094,38.744,25.293,37.854,26.105z" fill="#e2e8f0"></path><path xmlns="http://www.w3.org/2000/svg" fill-rule="evenodd" clip-rule="evenodd" d="M67.94,49.245c6.422,0.004,9.633,4.886,6.659,10.807  c-3.024,6.023-8.019,9.765-15.011,9.989c-6.783,0.217-9.113-4.218-6.999-10.354C54.57,53.937,61.87,49.242,67.94,49.245z" fill="#e2e8f0"></path><path xmlns="http://www.w3.org/2000/svg" fill-rule="evenodd" clip-rule="evenodd" d="M74.326,45.595c-5.795-0.04-10.959-5.349-10.944-11.251  c0.01-4.357,3.075-7.577,7.186-7.55c5.739,0.039,11.674,6.009,11.645,11.717C82.191,42.906,79.158,45.627,74.326,45.595z" fill="#e2e8f0"></path><path xmlns="http://www.w3.org/2000/svg" fill-rule="evenodd" clip-rule="evenodd" d="M36.197,75.248c-2.691-0.746-5.478-1.256-8.046-2.303  c-2.54-1.036-4.417-3.082-4.375-6.015c0.041-2.863,2.01-4.553,4.556-5.425c4.971-1.703,9.95-1.554,14.65,0.823  c2.614,1.323,4.723,3.389,4.095,6.751c-0.636,3.414-3.49,4.53-6.349,5.351c-1.381,0.397-2.913,0.271-4.377,0.383  C36.3,74.958,36.249,75.102,36.197,75.248z" fill="#e2e8f0"></path><path xmlns="http://www.w3.org/2000/svg" fill-rule="evenodd" clip-rule="evenodd" d="M88.205,52.5c5.772-0.035,8.319,4.093,5.863,8.747  c-2.173,4.12-7.616,6.623-11.453,5.267c-3.709-1.311-5.093-4.566-3.344-8.096C81.184,54.559,84.474,52.786,88.205,52.5z" fill="#e2e8f0"></path><path xmlns="http://www.w3.org/2000/svg" fill-rule="evenodd" clip-rule="evenodd" d="M46.266,87.77c-2.305-0.647-4.112-0.884-5.658-1.646  c-3.387-1.671-3.609-5.446-0.465-7.569c3.783-2.554,7.987-2.739,12.106-1.13c3.565,1.392,4.038,5.329,0.839,7.496  C51.013,86.325,48.388,86.917,46.266,87.77z" fill="#e2e8f0"></path><path xmlns="http://www.w3.org/2000/svg" fill-rule="evenodd" clip-rule="evenodd" d="M57.453,27.11c-2.69-0.852-5.713-1.424-8.362-2.749  c-2.986-1.494-2.787-4.063,0.091-5.745c3.72-2.173,12.656-1.704,16.048,0.843c2.476,1.857,2.406,4.397-0.435,5.661  C62.648,26.075,60.217,26.391,57.453,27.11z" fill="#e2e8f0"></path><path xmlns="http://www.w3.org/2000/svg" fill-rule="evenodd" clip-rule="evenodd" d="M23.009,56.955c0.223,2.711-0.844,4.873-3.298,5.907  c-2.602,1.095-4.785-0.288-6.373-2.243c-2.035-2.506-3.362-5.387-2.407-8.749c1.258-4.428,5.612-5.746,8.71-2.37  c1.798,1.958,2.784,4.662,4.135,7.029C23.521,56.671,23.265,56.813,23.009,56.955z" fill="#e2e8f0"></path><path xmlns="http://www.w3.org/2000/svg" fill-rule="evenodd" clip-rule="evenodd" d="M75.446,15.578c2.298,1.132,4.353,1.767,5.882,3.037  c0.915,0.759,1.645,2.734,1.288,3.751c-0.365,1.041-2.194,2.245-3.323,2.188c-1.999-0.1-4.194-0.742-5.84-1.851  c-1.147-0.772-2.348-2.96-2.011-4.048C71.828,17.411,73.889,16.688,75.446,15.578z" fill="#e2e8f0"></path><path xmlns="http://www.w3.org/2000/svg" fill-rule="evenodd" clip-rule="evenodd" d="M16.589,70.245c-0.965,1.368-1.612,3.255-2.71,3.568  c-1.08,0.307-3.025-0.646-3.847-1.653c-1.048-1.285-1.825-3.18-1.823-4.81c0.002-1.304,1.066-3.109,2.191-3.732  c0.768-0.426,2.856,0.455,3.629,1.366C15.165,66.325,15.651,68.213,16.589,70.245z" fill="#e2e8f0"></path><path xmlns="http://www.w3.org/2000/svg" fill-rule="evenodd" clip-rule="evenodd" d="M45.207,17.008c-1.104-0.705-2.2-1.406-3.298-2.105  c1.098-0.819,2.091-2.043,3.317-2.354c1.657-0.42,3.54-0.396,5.239-0.088c1.749,0.317,2.037,1.67,0.427,2.551  C49.295,15.886,47.424,16.257,45.207,17.008z" fill="#e2e8f0"></path><path xmlns="http://www.w3.org/2000/svg" fill-rule="evenodd" clip-rule="evenodd" d="M10.555,41.71c-0.106,3.194-2.276,6.416-3.938,6.2  c-0.639-0.083-1.572-1.251-1.612-1.966c-0.132-2.368,2.467-5.919,4.086-5.665C9.78,40.388,10.317,41.462,10.555,41.71z" fill="#e2e8f0"></path><path xmlns="http://www.w3.org/2000/svg" fill-rule="evenodd" clip-rule="evenodd" d="M19.22,28.43c-0.552-1.517-1.03-2.235-0.991-2.923  c0.028-0.5,0.647-1.162,1.165-1.403c1.829-0.85,3.725-1.549,5.596-2.307c0.114,0.565,0.515,1.45,0.297,1.645  C23.54,25.011,21.674,26.448,19.22,28.43z" fill="#e2e8f0"></path></g><g id="SvgjsG8070" featurekey="nameFeature-0" transform="matrix(0.7875296573363388,0,0,0.7875296573363388,91.20095209617268,17.015428706406365)" fill="#e2e8f0"><path d="M6.0938 1.4059999999999988 l27.813 0 l0 5.9375 l-27.813 0 l0 -5.9375 z M6.0938 32.6562 l27.734 0 l0 5.9375 l-27.734 0 l0 -5.9375 z M6.0938 16.875 l25.078 0 l0 5.8594 l-25.078 0 l0 -5.8594 z M72.813 27.344 c-0.98961 2.3959 -2.3438 4.375 -4.0625 5.9375 c-1.7709 1.6666 -3.8542 2.9688 -6.2501 3.9063 s-5.0781 1.4063 -8.0469 1.4063 l-8.6719 0 l0 -5.9375 l8.5938 0 c1.9791 0 3.776 -0.3125 5.3906 -0.9375 c1.5625 -0.625 2.9166 -1.5104 4.0625 -2.6563 s2.0313 -2.5 2.6563 -4.0625 s0.9375 -3.2813 0.9375 -5.1563 c0 -1.8229 -0.3125 -3.5156 -0.9375 -5.0781 c-0.625 -1.6146 -1.5104 -2.9427 -2.6563 -3.9844 c-1.0416 -1.0938 -2.3958 -1.9791 -4.0624 -2.6563 c-1.6666 -0.625 -3.4635 -0.9375 -5.3906 -0.9375 l-8.5938 0 l0 -5.9375 l8.6719 0 c2.7604 0 5.4166 0.49477 7.9688 1.4844 c2.3959 0.88539 4.5052 2.2135 6.3281 3.9844 c1.7709 1.6146 3.125 3.5938 4.0625 5.9375 c0.98961 2.3959 1.4844 4.8438 1.4844 7.3438 c0 2.7084 -0.49477 5.1563 -1.4844 7.3438 z M109.14099999999999 1.328000000000003 l0 21.25 c0 3.4375 -0.83336 5.9896 -2.5 7.6563 c-0.88539 0.98961 -2.1094 1.7188 -3.6719 2.1875 l0 6.0938 c1.25 -0.15625 2.3438 -0.41664 3.2813 -0.78125 c1.9271 -0.67711 3.5938 -1.6927 5 -3.0469 c1.4063 -1.5104 2.4479 -3.2552 3.125 -5.2343 c0.78125 -2.0313 1.1719 -4.4271 1.1719 -7.1875 l0 -20.938 l-6.4063 0 z M90.938 1.4059999999999988 l0 21.25 c0 3.3334 0.83336 5.8855 2.5 7.6563 c0.98961 0.98961 2.2136 1.6927 3.672 2.1094 l0 6.1719 c-0.88539 -0.10414 -1.9791 -0.36453 -3.2813 -0.78117 c-1.9791 -0.72914 -3.6198 -1.7708 -4.9219 -3.1249 c-1.4584 -1.3541 -2.5261 -3.0729 -3.2032 -5.1563 c-0.72914 -1.875 -1.0938 -4.2709 -1.0938 -7.1875 l0 -20.938 l6.3281 0 z M154.609 25 c-0.36461 -0.98961 -0.88531 -1.8488 -1.5624 -2.578 c-0.46875 -0.52086 -1.224 -1.1198 -2.2656 -1.797 c-1.1459 -0.57289 -2.1615 -1.0156 -3.0469 -1.3281 c0.625 -0.36461 1.3021 -0.78125 2.0313 -1.25 c0.72914 -0.625 1.276 -1.224 1.6406 -1.7969 c0.46875 -0.625 0.85938 -1.3802 1.1719 -2.2656 c0.3125 -0.9375 0.46875 -1.9531 0.46875 -3.0469 c0 -2.9166 -1.0938 -5.2344 -3.2813 -6.9531 s-5.1563 -2.5781 -8.9063 -2.5781 l-14.453 0 l0 5.7813 l13.672 0 c1.9791 0 3.5938 0.41664 4.8438 1.25 c1.0938 0.83336 1.6406 2.0313 1.6406 3.5938 c0 1.7709 -0.625 3.0469 -1.875 3.8281 c-1.3021 0.83336 -2.9948 1.25 -5.0782 1.25 l-13.203 0 l0 5.4688 l14.609 0 c2.5 0 4.401 0.44273 5.7031 1.3281 c1.25 0.9375 1.875 2.1875 1.875 3.75 c0 1.6666 -0.625 2.9427 -1.875 3.828 c-1.3021 0.88539 -3.0469 1.3281 -5.2344 1.3281 l-15.078 0 l0 5.7813 l15 0 c2.0313 0 3.9063 -0.23438 5.625 -0.70313 c1.7709 -0.52086 3.2031 -1.1719 4.2969 -1.9531 s2.0313 -1.849 2.8125 -3.2031 c0.625 -1.25 0.9375 -2.7084 0.9375 -4.375 c0 -1.3021 -0.15625 -2.4219 -0.46875 -3.3594 z M195.781 38.5937 l-10.078 -14.063 c1.3541 -0.41664 2.552 -0.91141 3.5937 -1.4843 c1.1459 -0.72914 2.0834 -1.5364 2.8125 -2.4218 c0.83336 -0.98961 1.4323 -2.0573 1.797 -3.2032 c0.46875 -1.25 0.70313 -2.6563 0.70313 -4.2188 c0 -1.8229 -0.3125 -3.4635 -0.9375 -4.9219 c-0.625 -1.4063 -1.5365 -2.6302 -2.7344 -3.6719 c-1.1459 -0.98961 -2.6042 -1.7709 -4.3751 -2.3438 c-1.8229 -0.57289 -3.75 -0.85938 -5.7813 -0.85938 l-16.563 0 l0 5.9375 l16.016 0 c2.4479 0 4.3489 0.52086 5.703 1.5625 s2.0313 2.6041 2.0313 4.6875 c0 1.9271 -0.67711 3.4375 -2.0313 4.5313 c-1.3541 1.1459 -3.2291 1.7188 -5.625 1.7188 l-16.094 0 l0 18.75 l6.4844 0 l0 -12.969 l8.2031 0 l9.1406 12.969 l7.7344 0 l0 0 z M223.281 16.875 l0 -15.547 l-6.5625 0 l0 37.344 l6.5625 0 l0 -21.797 z M272.813 27.344 c-0.98961 2.3959 -2.3438 4.375 -4.0625 5.9375 c-1.7709 1.6666 -3.8542 2.9688 -6.2501 3.9063 s-5.0781 1.4063 -8.0469 1.4063 l-8.6719 0 l0 -5.9375 l8.5938 0 c1.9791 0 3.776 -0.3125 5.3906 -0.9375 c1.5625 -0.625 2.9166 -1.5104 4.0625 -2.6563 s2.0313 -2.5 2.6563 -4.0625 s0.9375 -3.2813 0.9375 -5.1563 c0 -1.8229 -0.3125 -3.5156 -0.9375 -5.0781 c-0.625 -1.6146 -1.5104 -2.9427 -2.6563 -3.9844 c-1.0416 -1.0938 -2.3958 -1.9791 -4.0624 -2.6563 c-1.6666 -0.625 -3.4635 -0.9375 -5.3906 -0.9375 l-8.5938 0 l0 -5.9375 l8.6719 0 c2.7604 0 5.4166 0.49477 7.9688 1.4844 c2.3959 0.88539 4.5052 2.2135 6.3281 3.9844 c1.7709 1.6146 3.125 3.5938 4.0625 5.9375 c0.98961 2.3959 1.4844 4.8438 1.4844 7.3438 c0 2.7084 -0.49477 5.1563 -1.4844 7.3438 z M301.875 22.891 l13.828 0 l0 -5.7813 l-13.828 0 l0 5.7813 z M315.703 27.422 l-5.7813 0.000076294 l0 5.3125 l-5.7031 0 c-1.9791 0 -3.75 -0.3125 -5.3125 -0.9375 c-1.5625 -0.57289 -2.9427 -1.4323 -4.1406 -2.5781 c-1.0938 -1.1979 -1.9531 -2.552 -2.5781 -4.0624 c-0.625 -1.4584 -0.9375 -3.1511 -0.9375 -5.0782 c0 -1.8229 0.3125 -3.5156 0.9375 -5.0781 c0.67711 -1.6666 1.5365 -3.0208 2.5781 -4.0624 c1.1459 -1.1459 2.5261 -2.0573 4.1407 -2.7345 c1.5625 -0.625 3.3334 -0.9375 5.3125 -0.9375 l11.406 0.078125 l0 -5.9375 l-11.406 -0.078125 c-2.9166 0 -5.5989 0.46875 -8.0469 1.4063 c-2.3959 0.9375 -4.4792 2.2396 -6.2501 3.9063 c-1.7188 1.6666 -3.099 3.6458 -4.1406 5.9374 c-0.9375 2.2396 -1.4063 4.6875 -1.4063 7.3438 s0.46875 5.1302 1.4063 7.4219 c1.0416 2.3959 2.4219 4.375 4.1406 5.9375 c1.5625 1.5625 3.6459 2.8906 6.25 3.9844 c2.5 0.9375 5.1823 1.4063 8.0469 1.4063 l11.484 0 l0 -11.25 z M326.0938 1.4059999999999988 l27.813 0 l0 5.9375 l-27.813 0 l0 -5.9375 z M326.0938 32.6562 l27.734 0 l0 5.9375 l-27.734 0 l0 -5.9375 z M326.0938 16.875 l25.078 0 l0 5.8594 l-25.078 0 l0 -5.8594 z" fill="#e2e8f0"></path></g></svg>